<?xml version="1.0" encoding="UTF-8"?>
<svg width="128px" height="128px" viewBox="0 0 128 128" version="1.1" xmlns="http://www.w3.org/2000/svg" xmlns:xlink="http://www.w3.org/1999/xlink">
    <!-- Generator: Sketch 64 (93537) - https://sketch.com -->
    <title>Illustrations / Spot / Home-Page / APM@1x</title>
    <desc>Created with Sketch.</desc>
    <g id="Illustrations-/-Spot-/-Home-Page-/-APM" stroke="none" stroke-width="1" fill="none" fill-rule="evenodd">
        <g id="Asset-3" transform="translate(0.000000, 7.000000)">
            <rect id="Rectangle" fill="#50bb75" fill-rule="nonzero" x="25.910303" y="0" width="56.969697" height="120.126061" rx="7.12727273"></rect>
            <rect id="Rectangle" fill="#FFFFFF" fill-rule="nonzero" x="30.3418182" y="4.11151515" width="48.1066667" height="111.90303" rx="4.55757576"></rect>
            <path d="M51.7042424,112.921212 L34.9963636,112.921212 C34.1162855,112.884454 33.4314444,112.143265 33.4642424,111.26303 L33.4642424,62.2157576 C33.4485262,61.7939068 33.60118,61.3831164 33.8885675,61.0739021 C34.1759549,60.7646878 34.5744922,60.5824243 34.9963636,60.5672727 L51.7042424,60.5672727 C52.1261138,60.5824243 52.5246512,60.7646878 52.8120386,61.0739021 C53.099426,61.3831164 53.2520799,61.7939068 53.2363636,62.2157576 L53.2363636,111.26303 C53.2691617,112.143265 52.5843205,112.884454 51.7042424,112.921212 L51.7042424,112.921212 Z" id="Path" fill="#99D6FF" fill-rule="nonzero"></path>
            <path d="M57.6193939,87.4084848 C57.1975225,87.4236365 56.7989852,87.6058999 56.5115978,87.9151142 C56.2242103,88.2243286 56.0715565,88.635119 56.0872727,89.0569697 L56.0872727,111.26303 C56.0689104,111.686523 56.220379,112.099821 56.5080467,112.411158 C56.7957144,112.722495 57.1957728,112.906102 57.6193939,112.921212 L73.7939394,112.921212 C74.2175605,112.906102 74.6176189,112.722495 74.9052866,112.411158 C75.1929543,112.099821 75.3444229,111.686523 75.3260606,111.26303 L75.3260606,88.96 C75.3286628,88.5605795 75.171144,88.1767641 74.8887051,87.8943252 C74.6062662,87.6118863 74.2224508,87.4543675 73.8230303,87.4569697 L57.6193939,87.4084848 Z" id="Path" fill="#DCDEE3" fill-rule="nonzero"></path>
            <path d="M73.4351515,42.0363636 L57.4836364,42.0363636 C56.6035583,42.073122 55.9187171,42.8143109 55.9515152,43.6945455 L55.9515152,63.2824242 C55.9250863,63.7108073 56.0729315,64.1316852 56.3614592,64.4494308 C56.6499869,64.7671765 57.0546971,64.9548091 57.4836364,64.969697 L73.4351515,64.969697 C74.3151546,64.938098 75.0042208,64.2013606 74.9769697,63.3212121 L74.9769697,43.6945455 C74.9926842,43.2701233 74.8390081,42.8568674 74.5498025,42.5458349 C74.2605968,42.2348025 73.8595941,42.0515169 73.4351515,42.0363636" id="Path" fill="#DCDEE3" fill-rule="nonzero"></path>
            <path d="M51.7042424,34.5890909 L34.9963636,34.5890909 C34.1162855,34.6258493 33.4314444,35.3670381 33.4642424,36.2472727 L33.4642424,54.5357576 C33.4485262,54.9576083 33.60118,55.3683987 33.8885675,55.6776131 C34.1759549,55.9868274 34.5744922,56.1690908 34.9963636,56.1842424 L51.7042424,56.1842424 C52.1261138,56.1690908 52.5246512,55.9868274 52.8120386,55.6776131 C53.099426,55.3683987 53.2520799,54.9576083 53.2363636,54.5357576 L53.2363636,36.2472727 C53.2691617,35.3670381 52.5843205,34.6258493 51.7042424,34.5890909 L51.7042424,34.5890909 Z" id="Path" fill="#DCDEE3" fill-rule="nonzero"></path>
            <path d="M73.7939394,76.6060606 L57.5127273,76.6060606 C57.0908559,76.590909 56.6923185,76.4086456 56.4049311,76.0994312 C56.1175437,75.7902169 55.9648898,75.3794265 55.9806061,74.9575758 L55.9806061,69.8181818 C55.947808,68.9379472 56.6326492,68.1967584 57.5127273,68.16 L73.7939394,68.16 C74.6740175,68.1967584 75.3588587,68.9379472 75.3260606,69.8181818 L75.3260606,74.88 C75.3635529,75.3148169 75.2207017,75.7459337 74.930981,76.072328 C74.6412602,76.3987223 74.2301336,76.5917071 73.7939394,76.6060606 Z" id="Path" fill="#E5E9F0" fill-rule="nonzero"></path>
            <path d="M73.7939394,31.350303 L35.0060606,31.350303 C34.5841892,31.3351514 34.1856519,31.152888 33.8982644,30.8436737 C33.610877,30.5344593 33.4582231,30.1236689 33.4739394,29.7018182 L33.4739394,17.6969697 C33.4582231,17.275119 33.610877,16.8643286 33.8982644,16.5551142 C34.1856519,16.2458999 34.5841892,16.0636365 35.0060606,16.0484848 L73.7939394,16.0484848 C74.2158108,16.0636365 74.6143481,16.2458999 74.9017356,16.5551142 C75.189123,16.8643286 75.3417769,17.275119 75.3260606,17.6969697 L75.3260606,29.7018182 C75.3417769,30.1236689 75.189123,30.5344593 74.9017356,30.8436737 C74.6143481,31.152888 74.2158108,31.3351514 73.7939394,31.350303 L73.7939394,31.350303 Z" id="Path" fill="#7FCCFF" fill-rule="nonzero"></path>
            <path d="M73.7939394,12.809697 L35.0060606,12.809697 C34.5841892,12.7945454 34.1856519,12.6122819 33.8982644,12.3030676 C33.610877,11.9938533 33.4582231,11.5830629 33.4739394,11.1612121 L33.4739394,8.98909091 C33.4411413,8.10885632 34.1259825,7.36766746 35.0060606,7.33090909 L73.7939394,7.33090909 C74.2175605,7.34601938 74.6176189,7.52962667 74.9052866,7.84096324 C75.1929543,8.1522998 75.3444229,8.5655983 75.3260606,8.98909091 L75.3260606,11.1612121 C75.3417769,11.5830629 75.189123,11.9938533 74.9017356,12.3030676 C74.6143481,12.6122819 74.2158108,12.7945454 73.7939394,12.809697 L73.7939394,12.809697 Z" id="Path" fill="#E5E9F0" fill-rule="nonzero"></path>
            <rect id="Rectangle" fill="#00287A" fill-rule="nonzero" x="55.9806061" y="34.5890909" width="48.630303" height="48.630303" rx="2.04606061"></rect>
            <rect id="Rectangle" fill="#FFFFFF" fill-rule="nonzero" transform="translate(80.295758, 58.913939) rotate(90.000000) translate(-80.295758, -58.913939) " x="62.3321212" y="40.950303" width="35.9272727" height="35.9272727" rx="2.04606061"></rect>
            <path d="M62.3321212,58.3854545 L67.9757576,58.3854545 L74.0751515,72.4654545 C74.2568298,72.8787189 74.677087,73.1347043 75.1276439,73.1065445 C75.5782007,73.0783847 75.9633138,72.7720637 76.0921212,72.3393939 L84.0242424,45.4690909 C84.1536468,45.021208 84.5566754,44.7075447 85.0226213,44.6920867 C85.4885672,44.6766288 85.9114985,44.9628907 86.070303,45.4012121 L90.9187879,58.3854545 L104.601212,58.3854545" id="Path" stroke="#0099FF" stroke-width="4.37333333"></path>
            <rect id="Rectangle" fill="#ed3065" fill-rule="nonzero" x="118.865455" y="23.990303" width="8.59151515" height="4.61575758"></rect>
            <rect id="Rectangle" fill="#ed3065" fill-rule="nonzero" x="102.254545" y="23.990303" width="8.59151515" height="4.61575758"></rect>
            <rect id="Rectangle" fill="#ed3065" fill-rule="nonzero" x="112.552727" y="30.3127273" width="4.61575758" height="8.59151515"></rect>
            <rect id="Rectangle" fill="#ed3065" fill-rule="nonzero" x="112.552727" y="13.6921212" width="4.61575758" height="8.59151515"></rect>
            <rect id="Rectangle" fill="#ed3065" fill-rule="nonzero" transform="translate(14.872618, 115.821016) rotate(-45.000000) translate(-14.872618, -115.821016) " x="12.7829212" y="111.932531" width="4.17939394" height="7.7769697"></rect>
            <rect id="Rectangle" fill="#ed3065" fill-rule="nonzero" transform="translate(4.231239, 105.193137) rotate(-45.000000) translate(-4.231239, -105.193137) " x="2.14154155" y="101.304652" width="4.17939394" height="7.7769697"></rect>
            <rect id="Rectangle" fill="#ed3065" fill-rule="nonzero" transform="translate(4.231132, 115.827766) rotate(-45.000000) translate(-4.231132, -115.827766) " x="0.342647316" y="113.738069" width="7.7769697" height="4.17939394"></rect>
            <rect id="Rectangle" fill="#ed3065" fill-rule="nonzero" transform="translate(14.859011, 105.186387) rotate(-45.000000) translate(-14.859011, -105.186387) " x="10.9705261" y="103.09669" width="7.7769697" height="4.17939394"></rect>
            <path d="M97.0569697,120.591515 C95.6232492,120.182539 94.7906159,118.690737 95.1951515,117.255758 L103.922424,94.4872727 L100.421818,118.729697 C100.22574,119.424897 99.7598028,120.012822 99.1277785,120.36253 C98.4957543,120.712238 97.7501301,120.794688 97.0569697,120.591515 L97.0569697,120.591515 Z" id="Path" fill="#9BA9C5"></path>
            <path d="M103.912727,94.4872727 C96.0972762,92.6488213 87.8701354,94.4812564 81.5737166,99.4628515 C75.2772979,104.444447 71.601441,112.029415 71.5927273,120.058182 L83.0157576,120.058182 C83.0131827,116.119973 84.5764899,112.342323 87.3612247,109.557588 C90.1459595,106.772854 93.9236093,105.209546 97.8618182,105.212121 C98.5526534,105.208266 99.2428855,105.253634 99.9272727,105.347879" id="Path" fill="#32ADFF"></path>
            <path d="M103.912727,94.4969697 L102.264242,105.871515 C108.474255,107.804407 112.703167,113.554313 112.698182,120.058182 L124.121212,120.058182 C124.121587,107.884543 115.757945,97.3055796 103.912727,94.4969697 L103.912727,94.4969697 Z" id="Path" fill="#D2E6F8"></path>
        </g>
    </g>
</svg>