<?xml version="1.0" encoding="UTF-8"?>
<svg width="128px" height="128px" viewBox="0 0 128 128" version="1.1" xmlns="http://www.w3.org/2000/svg" xmlns:xlink="http://www.w3.org/1999/xlink">
    <!-- Generator: Sketch 64 (93537) - https://sketch.com -->
    <title>Illustrations / Spot / Home-Page / Bug Reporting@1x</title>
    <desc>Created with Sketch.</desc>
    <g id="Illustrations-/-Spot-/-Home-Page-/-Bug-Reporting" stroke="none" stroke-width="1" fill="none" fill-rule="evenodd">
        <g id="Asset-1" transform="translate(0.000000, 21.000000)" fill-rule="nonzero">
            <rect id="Rectangle" fill="#C3CBDC" x="26.6189474" y="0" width="54.8463158" height="106.442105" rx="6.86315789"></rect>
            <rect id="Rectangle" fill="#FFFFFF" x="30.8884211" y="3.95789474" width="46.3157895" height="98.5263158" rx="4.38736842"></rect>
            <path d="M53.5494737,12.5305263 L63.6547368,12.5305263 C64.189581,12.5305263 64.6231579,12.9641032 64.6231579,13.4989474 C64.6231579,14.0337915 64.189581,14.4673684 63.6547368,14.4673684 L53.5494737,14.4673684 C53.0146295,14.4673684 52.5810526,14.0337915 52.5810526,13.4989474 C52.5810526,12.9641032 53.0146295,12.5305263 53.5494737,12.5305263 L53.5494737,12.5305263 Z" id="Path" fill="#FFFFFF" opacity="0.27"></path>
            <path d="M50.3073684,12.5305263 L50.3073684,12.5305263 C50.8422126,12.5305263 51.2757895,12.9641032 51.2757895,13.4989474 C51.2757895,14.0337915 50.8422126,14.4673684 50.3073684,14.4673684 L50.3073684,14.4673684 C49.7725242,14.4673684 49.3389474,14.0337915 49.3389474,13.4989474 C49.3389474,12.9641032 49.7725242,12.5305263 50.3073684,12.5305263 L50.3073684,12.5305263 Z" id="Path" fill="#FFFFFF" opacity="0.27"></path>
            <path d="M51.4526316,99.5031579 L35.3684211,99.5031579 C34.9618382,99.4878213 34.5780394,99.3114444 34.3016073,99.0128977 C34.0251752,98.714351 33.8787988,98.3181387 33.8947368,97.9115789 L33.8947368,58.0378947 C33.8718489,57.6270757 34.0151062,57.2243071 34.2922755,56.9202128 C34.5694448,56.6161185 34.9572453,56.4362408 35.3684211,56.4210526 L51.4526316,56.4210526 C52.2959549,56.4530325 52.9547438,57.16076 52.9263158,58.0042105 L52.9263158,97.8778947 C52.951554,98.2901243 52.8093542,98.6950927 52.5319341,99.0010474 C52.2545141,99.3070021 51.8653564,99.4880451 51.4526316,99.5031579 Z" id="Path" fill="#DCDEE3"></path>
            <path d="M57.1452632,67.6547368 C56.3006239,67.6912147 55.6430727,68.4013699 55.6715789,69.2463158 L55.6715789,97.8778947 C55.6556409,98.2844545 55.8020173,98.6806668 56.0784494,98.9792135 C56.3548815,99.2777602 56.7386803,99.454137 57.1452632,99.4694737 L72.7242105,99.4694737 C73.1307934,99.454137 73.5145922,99.2777602 73.7910243,98.9792135 C74.0674564,98.6806668 74.2138328,98.2844545 74.1978947,97.8778947 L74.1978947,69.1031579 C74.1979082,68.3064942 73.554545,67.6593686 72.7578947,67.6547368 L57.1452632,67.6547368 Z" id="Path" fill="#7FCCFF"></path>
            <path d="M72.4210526,31.2589474 L57.0189474,31.2589474 C56.1889756,31.3086981 55.5500468,32.0111461 55.5789474,32.8421053 L55.5789474,51.7052632 C55.5630093,52.1118229 55.7093857,52.5080353 55.9858178,52.8065819 C56.2622499,53.1051286 56.6460487,53.2815055 57.0526316,53.2968421 L72.4210526,53.2968421 C73.2690258,53.2648591 73.931583,52.553363 73.9031579,51.7052632 L73.9031579,32.8421053 C73.9268565,31.9972441 73.2656402,31.2909449 72.4210526,31.2589474" id="Path" fill="#DCDEE3"></path>
            <path d="M51.4526316,31.2589474 L35.3684211,31.2589474 C34.5250977,31.2909273 33.8663089,31.9986547 33.8947368,32.8421053 L33.8947368,51.7052632 C33.8764989,52.1132472 34.0218444,52.5116379 34.2985197,52.8120282 C34.5751951,53.1124186 34.9603162,53.2899632 35.3684211,53.3052632 L51.4526316,53.3052632 C51.8592144,53.2899265 52.2430132,53.1135497 52.5194453,52.815003 C52.7958774,52.5164563 52.9422539,52.1202439 52.9263158,51.7136842 L52.9263158,32.8421053 C52.9422539,32.4355455 52.7958774,32.0393332 52.5194453,31.7407865 C52.2430132,31.4422398 51.8592144,31.265863 51.4526316,31.2505263" id="Path" fill="#7FCCFF"></path>
            <path d="M72.7242105,15.52 L57.3642105,15.52 C56.5162374,15.551983 55.8536802,16.2634791 55.8821053,17.1115789 L55.8821053,26.5263158 C55.8684817,26.9328554 56.0170282,27.3281355 56.2950232,27.6250847 C56.5730181,27.9220339 56.9576564,28.096292 57.3642105,28.1094737 L72.7242105,28.1094737 C73.5675338,28.0774938 74.2263227,27.3697663 74.1978947,26.5263158 L74.1978947,17.1115789 C74.2138328,16.7050192 74.0674564,16.3088069 73.7910243,16.0102602 C73.5145922,15.7117135 73.1307934,15.5353366 72.7242105,15.52" id="Path" fill="#7FCCFF"></path>
            <path d="M72.7242105,64.5052632 L57.0442105,64.5052632 C56.2042213,64.4687893 55.5504378,63.7624025 55.5789474,62.9221053 L55.5789474,58.0378947 C55.5560481,57.6284787 55.6981668,57.2269604 55.9735273,56.9231144 C56.2488878,56.6192683 56.6345233,56.4384372 57.0442105,56.4210526 L72.7242105,56.4210526 C73.5675338,56.4530325 74.2263227,57.16076 74.1978947,58.0042105 L74.1978947,62.8884211 C74.2207826,63.2992401 74.0775253,63.7020087 73.800356,64.006103 C73.5231868,64.3101973 73.1353863,64.490075 72.7242105,64.5052632 Z" id="Path" fill="#B4BED5"></path>
            <path d="M51.4526316,28.0421053 L35.3684211,28.0421053 C34.5250977,28.0101254 33.8663089,27.3023979 33.8947368,26.4589474 L33.8947368,17.0357895 C33.8663089,16.192339 34.5250977,15.4846115 35.3684211,15.4526316 L51.4526316,15.4526316 C52.2959549,15.4846115 52.9547438,16.192339 52.9263158,17.0357895 L52.9263158,26.4589474 C52.9547438,27.3023979 52.2959549,28.0101254 51.4526316,28.0421053 L51.4526316,28.0421053 Z" id="Path" fill="#DCDEE3"></path>
            <path d="M72.7242105,12.3284211 L35.3684211,12.3284211 C34.5250977,12.2964412 33.8663089,11.5887137 33.8947368,10.7452632 L33.8947368,8.64842105 C33.8787988,8.24186134 34.0251752,7.84564896 34.3016073,7.54710228 C34.5780394,7.24855561 34.9618382,7.07217874 35.3684211,7.05684211 L72.7242105,7.05684211 C73.1307934,7.07217874 73.5145922,7.24855561 73.7910243,7.54710228 C74.0674564,7.84564896 74.2138328,8.24186134 74.1978947,8.64842105 L74.1978947,10.7452632 C74.2263227,11.5887137 73.5675338,12.2964412 72.7242105,12.3284211 Z" id="Path" fill="#E5E9F0"></path>
            <path d="M94.8968501,58.1052632 C94.8689555,68.1351059 86.7204843,76.2459154 76.6906199,76.2273691 C66.6607556,76.2087591 58.5423872,68.0678188 58.551649,58.0379415 C58.5609266,48.0080643 66.694329,39.8821053 76.7242105,39.8821053 C86.7727025,39.9006921 94.9061549,48.0567583 94.8968501,58.1052632 Z" id="Path" fill="#FFFFFF"></path>
            <path d="M76.9347368,46.7705263 L76.5052632,46.7705263 C73.5524168,46.8130117 71.0866959,49.0339603 70.7368421,51.9663158 L82.7789474,51.9663158 C82.4253929,49.005537 79.916547,46.77505 76.9347368,46.7705263 L76.9347368,46.7705263 Z M73.7263158,54.1726316 L65.3557895,54.1726316 L65.3557895,57.0189474 L68.0168421,57.0189474 L68.0168421,60.0421053 L65.3557895,60.0421053 L65.3557895,62.8884211 L68.2105263,62.8884211 C68.3942542,63.765493 68.7244936,64.6053259 69.1873684,65.3726316 L67.0652632,67.4947368 L69.0526316,69.5073684 L71.0652632,67.4863158 C72.3727324,68.4959432 73.9695095,69.0596852 75.6210526,69.0947368 L75.6210526,56.0673684 C75.6210526,55.0209342 74.7727501,54.1726316 73.7263158,54.1726316 L73.7263158,54.1726316 Z M88.0926316,57.0189474 L88.0926316,54.1726316 L79.7221053,54.1726316 C78.675671,54.1726316 77.8273684,55.0209342 77.8273684,56.0673684 L77.8273684,69.0947368 C79.4789116,69.0596852 81.0756887,68.4959432 82.3831579,67.4863158 L84.3957895,69.5073684 L86.4084211,67.4947368 L84.2863158,65.3726316 C84.7491906,64.6053259 85.07943,63.765493 85.2631579,62.8884211 L88.0926316,62.8884211 L88.0926316,60.0421053 L85.4315789,60.0421053 L85.4315789,57.0189474 L88.0926316,57.0189474 Z" id="Shape" fill="#0099FF"></path>
            <path d="M115.132632,88.8505263 L97.1031579,71.5789474 C97.033969,71.5154519 96.9608412,71.4563871 96.8842105,71.4021053 C103.676268,61.0472379 101.532462,47.2325077 91.921624,39.4230837 C82.3107856,31.6136598 68.3496966,32.3421281 59.6038039,41.1093783 C50.8579112,49.8766286 50.1634964,63.8394528 57.9963382,73.4312152 C65.8291799,83.0229776 79.6490979,85.133082 89.9873684,78.3157895 C90.0547368,78.3831579 90.0968421,78.4673684 90.1642105,78.5347368 L108.193684,95.8063158 C110.127698,97.6118086 113.144582,97.5599811 115.01544,95.6891238 C116.886297,93.8182665 116.938124,90.8013823 115.132632,88.8673684 L115.132632,88.8505263 Z M76.7242105,75.7894737 C66.9574907,75.7894737 59.04,67.8719829 59.04,58.1052632 C59.04,48.3385434 66.9574907,40.4210526 76.7242105,40.4210526 C86.4909303,40.4210526 94.4084211,48.3385434 94.4084211,58.1052632 C94.4084211,67.8719829 86.4909303,75.7894737 76.7242105,75.7894737 L76.7242105,75.7894737 Z" id="Shape" fill="#00287A"></path>
            <rect id="Rectangle" fill="#E5E9F0" x="118.08" y="29.9957895" width="9.49894737" height="4.39578947"></rect>
            <rect id="Rectangle" fill="#E5E9F0" x="99.7221053" y="29.9957895" width="9.49894737" height="4.39578947"></rect>
            <rect id="Rectangle" fill="#E5E9F0" x="111.452632" y="36.6315789" width="4.39578947" height="9.49894737"></rect>
            <rect id="Rectangle" fill="#E5E9F0" x="111.452632" y="18.2652632" width="4.39578947" height="9.49894737"></rect>
            <polyline id="Path" fill="#E5E9F0" points="15.8568421 69.4905263 10.4505263 74.8968421 13.3557895 77.7936842 18.7621053 72.3957895"></polyline>
            <polyline id="Path" fill="#E5E9F0" points="5.40631579 79.9410526 0 85.3473684 2.90526316 88.2526316 8.31157895 82.8463158"></polyline>
            <polyline id="Path" fill="#E5E9F0" points="18.7621053 85.3473684 13.3557895 79.9410526 10.4505263 82.8463158 15.8568421 88.2526316"></polyline>
            <polyline id="Path" fill="#E5E9F0" points="8.31157895 74.8968421 2.90526316 69.4905263 0 72.3957895 5.40631579 77.7936842"></polyline>
            <path d="M76.6315789,82.2736842 C68.613668,82.2799589 61.1160964,78.303974 56.6231579,71.6631579 C60.6521763,79.9795694 69.0748203,85.2666096 78.3157895,85.28 C79.3605225,85.2738939 80.4038927,85.2035859 81.44,85.0694737 L81.44,81.7684211 C79.8579548,82.0961411 78.24719,82.2653984 76.6315789,82.2736842 L76.6315789,82.2736842 Z" id="Path" fill="#E5E9F0" style="mix-blend-mode: multiply;"></path>
        </g>
    </g>
</svg>