<svg height="40px" viewBox="0 1 511 511.99962" width="40px" xmlns="http://www.w3.org/2000/svg"><path d="m504.84375 187.367188v269.34375c0 13.816406-5.882812 26.253906-15.269531 34.964843-8.515625 7.894531-19.910157 12.722657-32.429688 12.722657h-401.351562c-12.519531 0-23.914063-4.828126-32.417969-12.714844-9.386719-8.71875-15.269531-21.15625-15.269531-34.972656v-269.34375zm0 0" fill="#fec970"/><path d="m258.503906 504.398438h-202.710937c-26.335938 0-47.6875-21.351563-47.6875-47.6875v-270.945313l52.96875 45.710937 3.304687 2.746094v135.933594c0 46.246094 18.660156 90.078125 61.207032 108.222656 39.253906 16.742188 109.09375 26.019532 132.917968 26.019532zm0 0" fill="#fba028"/><path d="m504.839844 187.367188-56.273438 46.855468-50.871094 42.355469-83.796874 69.765625c-5.878907 4.894531-12.226563 8.921875-18.875 12.082031-30.992188 14.773438-68.589844 10.738281-95.992188-12.082031l-15.296875-12.734375-62.78125-52.277344-56.578125-47.109375-56.273438-46.855468 190.929688-158.972657c33.28125-27.71875 81.597656-27.71875 114.878906 0zm0 0" fill="#fba028"/><path d="m448.566406 88.152344v146.070312l-40.550781 33.757813-94.117187 78.363281c-33.269532 27.714844-81.585938 27.714844-114.867188 0l-94.105469-78.351562-40.550781-33.769532v-146.070312c0-30.453125 24.695312-55.148438 55.160156-55.148438h273.882813c30.460937 0 55.148437 24.695313 55.148437 55.148438zm0 0" fill="#bfdadd"/><path d="m448.570312 88.152344v112.617187l-134.667968 112.121094c-33.269532 27.714844-81.585938 27.714844-114.867188 0l-134.65625-112.121094v-112.617187c0-30.453125 24.695313-55.148438 55.160156-55.148438h273.882813c30.460937 0 55.148437 24.695313 55.148437 55.148438zm0 0" fill="#e4f5f7"/><path d="m256.785156 109.5c-38.230468 0-69.222656 30.996094-69.222656 69.226562v37.933594c0 38.230469 30.992188 69.226563 69.222656 69.226563 38.234375 0 69.226563-30.996094 69.226563-69.226563v-37.933594c0-38.230468-30.992188-69.226562-69.226563-69.226562zm0 0" fill="#f71e1e"/><path d="m220.921875 216.660156v-37.933594c0-32.480468 22.375-59.722656 52.546875-67.191406-5.34375-1.320312-10.929688-2.035156-16.683594-2.035156-38.230468 0-69.222656 30.992188-69.222656 69.226562v37.933594c0 38.230469 30.992188 69.222656 69.222656 69.222656 5.753906 0 11.339844-.710937 16.683594-2.035156-30.171875-7.464844-52.546875-34.710937-52.546875-67.1875zm0 0" fill="#d80303"/><path d="m342.175781 359.0625c-3.226562-2.6875-8.019531-2.25-10.710937.976562-2.683594 3.226563-2.25 8.023438.980468 10.710938l121.234376 100.9375c1.417968 1.183594 3.144531 1.757812 4.859374 1.757812 2.179688 0 4.34375-.929687 5.847657-2.738281 2.6875-3.226562 2.25-8.019531-.980469-10.707031zm0 0"/><path d="m170.773438 359.0625-121.234376 100.9375c-3.226562 2.683594-3.664062 7.480469-.980468 10.707031 1.503906 1.808594 3.667968 2.738281 5.847656 2.738281 1.714844 0 3.441406-.574218 4.863281-1.757812l121.234375-100.9375c3.226563-2.6875 3.664063-7.480469.976563-10.710938-2.6875-3.226562-7.480469-3.664062-10.707031-.976562zm0 0"/><path d="m504.839844 281.828125c4.199218 0 7.601562-3.402344 7.601562-7.601563v-86.632812c.066406-2.292969-.90625-4.546875-2.734375-6.070312l-53.535156-44.574219v-48.796875c0-34.601563-28.152344-62.75-62.75-62.75h-71.230469l-3.421875-2.851563c-36.09375-30.066406-88.496093-30.066406-124.601562 0l-3.417969 2.851563h-71.214844c-34.605468 0-62.757812 28.148437-62.757812 62.75v48.796875l-53.398438 44.460937c-1.753906 1.394532-2.878906 3.542969-2.878906 5.957032v269.339843c0 30.488281 24.804688 55.292969 55.292969 55.292969h401.355469c30.488281 0 55.292968-24.804688 55.292968-55.292969v-152.066406c0-4.199219-3.402344-7.601563-7.601562-7.601563-4.203125 0-7.605469 3.402344-7.605469 7.601563v152.066406c0 22.105469-17.980469 40.085938-40.085937 40.085938h-401.355469c-22.105469 0-40.085938-17.980469-40.085938-40.085938v-253.117187l178.460938 148.597656c18.054687 15.035156 40.175781 22.550781 62.304687 22.550781 22.121094 0 44.25-7.519531 62.292969-22.550781l134.601563-112.070312c.027343-.019532.050781-.042969.078124-.0625l43.789063-36.460938v70.632812c0 4.199219 3.40625 7.601563 7.605469 7.601563zm-11.882813-94.460937-36.785156 30.628906v-61.257813zm-196.875-161.964844h-79.222656c24.621094-13.574219 54.609375-13.574219 79.222656 0zm12.953125 315.101562c-30.453125 25.367188-74.667968 25.367188-105.132812-.003906l-131.917969-109.839844v-35.5c0-4.199218-3.40625-7.601562-7.605469-7.601562-4.199218 0-7.601562 3.402344-7.601562 7.601562v22.839844l-36.789063-30.632812 36.789063-30.628907v8.007813c0 4.199218 3.402344 7.601562 7.601562 7.601562 4.199219 0 7.605469-3.402344 7.605469-7.601562v-24.265625c0-.003907 0-.007813 0-.007813v-52.320312c0-26.21875 21.332031-47.546875 47.550781-47.546875h273.886719c26.214844 0 47.542969 21.328125 47.542969 47.546875v52.320312.007813 90.175781zm0 0"/><path d="m362.972656 189.902344h-29.359375v-11.175782c0-13.070312-3.289062-25.386718-9.070312-36.171874l28.449219-22.53125c3.292968-2.605469 3.847656-7.386719 1.242187-10.679688-2.609375-3.292969-7.390625-3.847656-10.683594-1.238281l-27.5 21.777343c-10.742187-13.007812-25.683593-22.417968-42.722656-26.171874l26.722656-26.71875c2.96875-2.972657 2.96875-7.785157 0-10.753907-2.972656-2.96875-7.785156-2.96875-10.753906 0l-32.511719 32.511719-32.507812-32.511719c-2.972656-2.96875-7.785156-2.96875-10.753906 0s-2.96875 7.785157 0 10.753907l26.722656 26.71875c-17.171875 3.78125-32.203125 13.3125-42.960938 26.480468l-27.886718-22.085937c-3.292969-2.609375-8.074219-2.050781-10.683594 1.238281-2.605469 3.292969-2.050782 8.074219 1.242187 10.679688l28.890625 22.882812c-5.664062 10.703125-8.886718 22.890625-8.886718 35.820312v11.175782h-29.980469c-4.203125 0-7.605469 3.40625-7.605469 7.605468 0 4.199219 3.402344 7.601563 7.605469 7.601563h29.980469v11.550781c0 13.789063 3.667968 26.730469 10.054687 37.929688l-23.503906 23.503906c-2.96875 2.96875-2.96875 7.78125 0 10.75 1.484375 1.484375 3.433593 2.226562 5.378906 2.226562s3.890625-.738281 5.375-2.226562l21.691406-21.691406c14.09375 16.121094 34.785157 26.335937 57.832031 26.335937 22.886719 0 43.453126-10.070312 57.539063-26l21.355469 21.359375c1.488281 1.484375 3.433594 2.226563 5.378906 2.226563s3.890625-.742188 5.375-2.226563c2.972656-2.972656 2.972656-7.785156 0-10.753906l-23.105469-23.105469c6.527344-11.292969 10.285157-24.375 10.285157-38.328125v-11.546875h29.355468c4.203125 0 7.605469-3.40625 7.605469-7.605469 0-4.199218-3.40625-7.605468-7.605469-7.605468zm-98.582031 87.894531v-73.003906c0-4.199219-3.402344-7.601563-7.605469-7.601563-4.199218 0-7.601562 3.402344-7.601562 7.601563v73.003906c-30.402344-3.761719-54.019532-29.734375-54.019532-61.136719v-37.933594c0-31.402343 23.617188-57.375 54.019532-61.136718v61.859375c0 4.199219 3.402344 7.601562 7.601562 7.601562 4.203125 0 7.605469-3.402343 7.605469-7.601562v-61.859375c30.402344 3.761718 54.015625 29.734375 54.015625 61.136718v37.933594c0 31.402344-23.617188 57.375-54.015625 61.136719zm0 0"/></svg>