<?xml version="1.0" encoding="UTF-8"?>
<svg width="520px" height="400px" viewBox="0 0 520 400" version="1.1" xmlns="http://www.w3.org/2000/svg" xmlns:xlink="http://www.w3.org/1999/xlink">
    <!-- Generator: Sketch 64 (93537) - https://sketch.com -->
    <title>Illustrations / Spot Hero / Competitors / Firebase@1x</title>
    <desc>Created with Sketch.</desc>
    <defs>
        <linearGradient x1="77.0093693%" y1="83.0943636%" x2="-32.5349164%" y2="-51.2118029%" id="linearGradient-1">
            <stop stop-color="#FFFFFF" offset="0%"></stop>
            <stop stop-color="#FFFFFF" offset="0%"></stop>
            <stop stop-color="#FBFEFF" stop-opacity="0.65" offset="29%"></stop>
            <stop stop-color="#F9FCFF" stop-opacity="0.37" offset="55%"></stop>
            <stop stop-color="#F7FCFF" stop-opacity="0.17" offset="75%"></stop>
            <stop stop-color="#F5FBFF" stop-opacity="0.05" offset="91%"></stop>
            <stop stop-color="#F5FBFF" stop-opacity="0" offset="100%"></stop>
        </linearGradient>
        <linearGradient x1="103.141624%" y1="-159.7297%" x2="50.6240519%" y2="31.813875%" id="linearGradient-2">
            <stop stop-color="#FFFFFF" stop-opacity="0" offset="0%"></stop>
            <stop stop-color="#FFFEFD" stop-opacity="0.01" offset="20%"></stop>
            <stop stop-color="#FFFBF6" stop-opacity="0.05" offset="34%"></stop>
            <stop stop-color="#FFF5EA" stop-opacity="0.1" offset="45%"></stop>
            <stop stop-color="#FFEED9" stop-opacity="0.19" offset="56%"></stop>
            <stop stop-color="#FFE4C3" stop-opacity="0.29" offset="65%"></stop>
            <stop stop-color="#FFD7A7" stop-opacity="0.43" offset="74%"></stop>
            <stop stop-color="#FFC987" stop-opacity="0.58" offset="83%"></stop>
            <stop stop-color="#FFB862" stop-opacity="0.77" offset="91%"></stop>
            <stop stop-color="#FFA539" stop-opacity="0.97" offset="99%"></stop>
            <stop stop-color="#FFA232" offset="100%"></stop>
        </linearGradient>
        <linearGradient x1="163.350515%" y1="79.1837602%" x2="-117.886598%" y2="6.79253906%" id="linearGradient-3">
            <stop stop-color="#FFFFFF" offset="0%"></stop>
            <stop stop-color="#FFFFFF" offset="0%"></stop>
            <stop stop-color="#FBFEFF" stop-opacity="0.65" offset="29%"></stop>
            <stop stop-color="#F9FCFF" stop-opacity="0.37" offset="55%"></stop>
            <stop stop-color="#F7FCFF" stop-opacity="0.17" offset="75%"></stop>
            <stop stop-color="#F5FBFF" stop-opacity="0.05" offset="91%"></stop>
            <stop stop-color="#F5FBFF" stop-opacity="0" offset="100%"></stop>
        </linearGradient>
        <linearGradient x1="130.848787%" y1="101.795061%" x2="-34.4032334%" y2="-4.04183935%" id="linearGradient-4">
            <stop stop-color="#FFFFFF" offset="0%"></stop>
            <stop stop-color="#FFFFFF" offset="0%"></stop>
            <stop stop-color="#FBFEFF" stop-opacity="0.65" offset="29%"></stop>
            <stop stop-color="#F9FCFF" stop-opacity="0.37" offset="55%"></stop>
            <stop stop-color="#F7FCFF" stop-opacity="0.17" offset="75%"></stop>
            <stop stop-color="#F5FBFF" stop-opacity="0.05" offset="91%"></stop>
            <stop stop-color="#F5FBFF" stop-opacity="0" offset="100%"></stop>
        </linearGradient>
        <linearGradient x1="-59.4353218%" y1="-43.9899807%" x2="40.7194448%" y2="36.5013129%" id="linearGradient-5">
            <stop stop-color="#FFFFFF" stop-opacity="0" offset="0%"></stop>
            <stop stop-color="#F4674C" offset="100%"></stop>
        </linearGradient>
        <linearGradient x1="163.402062%" y1="79.1837602%" x2="-117.835052%" y2="6.79253906%" id="linearGradient-6">
            <stop stop-color="#FFFFFF" offset="0%"></stop>
            <stop stop-color="#FFFFFF" offset="0%"></stop>
            <stop stop-color="#FBFEFF" stop-opacity="0.65" offset="29%"></stop>
            <stop stop-color="#F9FCFF" stop-opacity="0.37" offset="55%"></stop>
            <stop stop-color="#F7FCFF" stop-opacity="0.17" offset="75%"></stop>
            <stop stop-color="#F5FBFF" stop-opacity="0.05" offset="91%"></stop>
            <stop stop-color="#F5FBFF" stop-opacity="0" offset="100%"></stop>
        </linearGradient>
        <linearGradient x1="-16.5698623%" y1="-15.596537%" x2="213.966477%" y2="211.504278%" id="linearGradient-7">
            <stop stop-color="#F5FBFF" stop-opacity="0" offset="0%"></stop>
            <stop stop-color="#E4F9FF" stop-opacity="0.07" offset="10%"></stop>
            <stop stop-color="#B6F3FF" stop-opacity="0.26" offset="31%"></stop>
            <stop stop-color="#6DE9FF" stop-opacity="0.56" offset="60%"></stop>
            <stop stop-color="#09DCFF" stop-opacity="0.96" offset="97%"></stop>
            <stop stop-color="#00DBFF" offset="100%"></stop>
        </linearGradient>
        <linearGradient x1="106.833983%" y1="-3.49923403%" x2="33.4185024%" y2="68.6529876%" id="linearGradient-8">
            <stop stop-color="#F5FBFF" stop-opacity="0" offset="0%"></stop>
            <stop stop-color="#EFFAFB" stop-opacity="0.03" offset="11%"></stop>
            <stop stop-color="#DFF6F1" stop-opacity="0.11" offset="25%"></stop>
            <stop stop-color="#C5EFE0" stop-opacity="0.25" offset="42%"></stop>
            <stop stop-color="#A0E6C8" stop-opacity="0.44" offset="59%"></stop>
            <stop stop-color="#70DAAA" stop-opacity="0.68" offset="78%"></stop>
            <stop stop-color="#37CC85" stop-opacity="0.97" offset="98%"></stop>
            <stop stop-color="#32CB82" offset="100%"></stop>
        </linearGradient>
        <linearGradient x1="163.402062%" y1="79.1837602%" x2="-117.886598%" y2="6.79253906%" id="linearGradient-9">
            <stop stop-color="#FFFFFF" offset="0%"></stop>
            <stop stop-color="#FFFFFF" offset="0%"></stop>
            <stop stop-color="#FBFEFF" stop-opacity="0.65" offset="29%"></stop>
            <stop stop-color="#F9FCFF" stop-opacity="0.37" offset="55%"></stop>
            <stop stop-color="#F7FCFF" stop-opacity="0.17" offset="75%"></stop>
            <stop stop-color="#F5FBFF" stop-opacity="0.05" offset="91%"></stop>
            <stop stop-color="#F5FBFF" stop-opacity="0" offset="100%"></stop>
        </linearGradient>
        <linearGradient x1="0%" y1="49.9390987%" x2="100.449765%" y2="49.9390987%" id="linearGradient-10">
            <stop stop-color="#FFFFFF" offset="0%"></stop>
            <stop stop-color="#FEFFFF" stop-opacity="0.89" offset="13%"></stop>
            <stop stop-color="#FBFDFF" stop-opacity="0.62" offset="42%"></stop>
            <stop stop-color="#F7FCFF" stop-opacity="0.18" offset="84%"></stop>
            <stop stop-color="#F5FBFF" stop-opacity="0" offset="100%"></stop>
        </linearGradient>
        <linearGradient x1="-11.6382637%" y1="49.9837187%" x2="110.257235%" y2="49.9837187%" id="linearGradient-11">
            <stop stop-color="#F5FBFF" stop-opacity="0" offset="0%"></stop>
            <stop stop-color="#D8E1EC" stop-opacity="0.32" offset="25%"></stop>
            <stop stop-color="#BEC9DC" stop-opacity="0.61" offset="51%"></stop>
            <stop stop-color="#ABB8CF" stop-opacity="0.82" offset="73%"></stop>
            <stop stop-color="#9FADC8" stop-opacity="0.95" offset="90%"></stop>
            <stop stop-color="#9BA9C5" offset="100%"></stop>
        </linearGradient>
        <linearGradient x1="-25.7350932%" y1="49.9177878%" x2="87.1636419%" y2="49.9177878%" id="linearGradient-12">
            <stop stop-color="#FFFFFF" stop-opacity="0" offset="0%"></stop>
            <stop stop-color="#F4674C" offset="100%"></stop>
        </linearGradient>
        <linearGradient x1="-47.8894925%" y1="50.1223229%" x2="118.025756%" y2="50.1223229%" id="linearGradient-13">
            <stop stop-color="#FFFFFF" stop-opacity="0" offset="0%"></stop>
            <stop stop-color="#F4674C" offset="100%"></stop>
        </linearGradient>
    </defs>
    <g id="Illustrations-/-Spot-Hero-/-Competitors-/-Firebase" stroke="none" stroke-width="1" fill="none" fill-rule="evenodd">
        <g id="Asset-11">
            <g id="Group" opacity="0.2" transform="translate(355.000000, 0.000000)" fill="#FFFFFF" fill-rule="nonzero">
                <path d="M165.000026,7.62 L165.000026,181.34 C165.000026,185.54841 161.58841,188.96 157.38,188.96 L8.38,188.96 C4.17159021,188.96 0.76,185.54841 0.76,181.34 L0.76,7.62 C0.76,5.59558035 1.565557,3.65436643 2.99891275,2.22476291 C4.4322685,0.7951594 6.37558732,-0.00531343742 8.4,-2.62843488e-05 L157.4,-2.62843488e-05 C159.419115,-2.62843488e-05 161.355242,0.803449838 162.781095,2.23305487 C164.206948,3.66265991 165.005313,5.60089166 165.000026,7.62 Z" id="Path"></path>
            </g>
            <g id="Group" opacity="0.2" fill="#FFFFFF" fill-rule="nonzero">
                <rect id="Rectangle" x="0.05" y="0" width="332.68" height="188.96" rx="7.62"></rect>
            </g>
            <g id="Group" opacity="0.2" transform="translate(0.000000, 210.000000)" fill="#FFFFFF" fill-rule="nonzero">
                <rect id="Rectangle" x="0" y="0.61" width="520" height="188.96" rx="9.53"></rect>
            </g>
            <g id="Group" opacity="0.15" transform="translate(355.000000, 71.000000)" fill="#E7F4FE" fill-rule="nonzero">
                <path d="M45.12,31.8 L0.78,31.8 L0.78,0.8 L11.78,0.8 C21.01,0.8 27.4,8.8 24.18,16.26 L32.75,16.26 C42,16.29 48.4,24.31 45.12,31.8 Z" id="Path"></path>
            </g>
            <g id="Group" opacity="0.15" transform="translate(489.000000, 1.000000)" fill="#E7F4FE" fill-rule="nonzero">
                <path d="M31,6.62 L31,28 L0.86,28 L4.42,19.88 C6.37,15.43 11.29,12.49 16.79,12.49 L21,12.49 L24.53,4.43 C25.2441677,2.81013078 26.3302186,1.38147707 27.7,0.26 C29.7875552,1.70076112 31.0239563,4.08364326 31,6.62 L31,6.62 Z" id="Path"></path>
            </g>
            <path d="M422.24,45.94 L411.82,59.09 C411.418093,59.5992933 411.29737,60.2757786 411.498307,60.8926526 C411.699243,61.5095266 412.195237,61.9851268 412.82,62.16 L419.92,64" id="Path" fill="#99D6FF" fill-rule="nonzero"></path>
            <path d="M506.72,56.5 C509.14,47.65 501.18,34.82 488.89,40.91 C480.6,45.01 485.89,71.31 485.89,71.31 L492.47,94.48 C492.47,94.48 504.27,65.42 506.72,56.5 Z" id="Path" fill="#00143D" fill-rule="nonzero"></path>
            <path d="M481.05,170.31 L481.05,152.19 L489.57,168.67 L481.05,170.31 Z M401.85,168.67 L410.22,152.47 L410.22,170.28 L401.85,168.67 Z M511.49,166.44 C511.023274,164.184069 510.263497,161.99887 509.23,159.94 L486.16,123 C483.462578,117.520097 478.894089,113.185707 473.28,110.78 C465.632965,107.728524 460.526149,100.429706 460.28,92.2 L460.28,71.75 L431,71.75 L431,92.21 C430.748591,100.43321 425.642217,107.723541 418,110.77 C412.390125,113.187137 407.824141,117.522694 405.12,123 L383.65,160 C382.500035,162.289048 381.694668,164.735476 381.26,167.26 C379.34,178.34 388.02,188.46 399.26,188.72 L410.26,188.91 L410.26,189 L481.09,189 L481.09,188.91 L493.63,188.73 C499.142272,188.613363 504.319414,186.059802 507.766968,181.757115 C511.214523,177.454428 512.577945,171.845101 511.49,166.44 L511.49,166.44 Z" id="Shape" fill="#99D6FF" fill-rule="nonzero"></path>
            <path d="M511.49,166.44 C511.023274,164.184069 510.263497,161.99887 509.23,159.94 L486.16,123 C483.6618,117.946771 479.576776,113.85121 474.53,111.34 C465.867907,115.794839 456.270495,118.125639 446.53,118.14 C436.434577,118.040208 426.502787,115.577809 417.53,110.95 C412.127146,113.414834 407.742769,117.672025 405.12,123 L383.65,160 C382.500035,162.289048 381.694668,164.735476 381.26,167.26 C379.34,178.34 388.02,188.46 399.26,188.72 L410.26,188.91 L410.26,189 L481.09,189 L481.09,188.91 L493.63,188.73 C499.142272,188.613363 504.319414,186.059802 507.766968,181.757115 C511.214523,177.454428 512.577945,171.845101 511.49,166.44 L511.49,166.44 Z M410.22,170.28 L401.85,168.67 L410.22,152.47 L410.22,170.28 Z M481.05,170.28 L481.05,152.19 L489.57,168.67 L481.05,170.28 Z" id="Shape" fill="#002061" fill-rule="nonzero"></path>
            <path d="M411.12,151.07 L410.54,152.19 L402,168.67 L410.52,170.31 L436.2,174.06 L436.2,188.87 L410.54,188.87 L398,188.69 C392.489689,188.58343 387.310037,186.039937 383.856546,181.74479 C380.403055,177.449644 379.030985,171.844685 380.11,166.44 C380.568825,164.183249 381.325445,161.99746 382.36,159.94 L405.43,123" id="Path" fill="#002061" fill-rule="nonzero"></path>
            <line x1="401.94" y1="168.78" x2="393.78" y2="166.27" id="Path" stroke="#231F20" stroke-width="1.02" fill="#FFFFFF" fill-rule="nonzero"></line>
            <path d="M452,88.78 C452,88.78 426.27,106.29 422.14,108.53 C422.14,108.53 432.35,103.02 430.94,88.28 L452,88.78 Z" id="Path" fill="#66C1FF" fill-rule="nonzero"></path>
            <path d="M424.6,88.32 L438.16,89.32 C439.16,89.39 440.09,89.43 441.06,89.46 C448.52,89.64 461.61,91.07 468.06,80.46 C468.325321,80.750807 468.624056,81.0092635 468.95,81.23 C472.23,83.36 473.43,79.65 477.65,75.56 C484.02,69.4 486.58,50.91 481.7,48.66 C479.96,47.86 479.43,47.8 477.35,48.66 C477.45,48.16 475.22,50.75 475.35,50.25 C479.45,28.41 469.35,19.97 454.75,17.25 C442.17,14.89 429.18,26.04 423.2,43.12 C421.833429,47.1125778 420.914464,51.2445673 420.46,55.44 L417.46,80.29 C417.217105,82.3359528 417.861096,84.3880782 419.229424,85.9284027 C420.597752,87.4687271 422.559679,88.3500798 424.62,88.35 L424.6,88.32 Z" id="Path" fill="#99D6FF" fill-rule="nonzero"></path>
            <path d="M438.07,21.25 C454.99,7.12 472.81,21.36 472.81,21.36 C492.31,35.63 487.81,59.48 481.58,70.3 C472.42,86.2 460.31,87.3 460.31,87.3 C464.771647,82.3381007 468.080667,76.4508447 470,70.06 C472.393458,70.1200064 474.756998,69.5178745 476.83,68.32 C480.276784,65.9744711 481.766776,61.6388367 480.49,57.67 C478.49,52.51 472.73,54.82 472.73,54.82 C472.73,54.82 441.21,43.12 433.17,25.82 C433.21,25.79 436.8,22.31 438.07,21.25 Z" id="Path" fill="#00143D" fill-rule="nonzero"></path>
            <path d="M456.52,174.09 C456.52,174.09 437.87,175.82 432.61,186.94 L457.17,185.55 L456.52,174.09 Z" id="Path" fill="#99D6FF" fill-rule="nonzero"></path>
            <path d="M486.16,123 L509.23,159.93 C510.264555,161.98746 511.021175,164.173249 511.48,166.43 C512.559293,171.836371 511.185967,177.443023 507.730233,181.738558 C504.274499,186.034094 499.092076,188.576348 493.58,188.68 L481.05,188.86 L455.37,188.86 L455.37,174.06 L481.05,170.31 L489.57,168.67 L481.05,152.19 L480.47,151.07" id="Path" fill="#002061" fill-rule="nonzero"></path>
            <path d="M501.12,172.08 L501.12,172.08 C497.99827,169.291475 493.776326,168.076792 489.65,168.78 L455.37,174.06" id="Path" stroke="#37538F" stroke-width="1.02"></path>
            <line x1="485.44" y1="169.43" x2="497.81" y2="166.27" id="Path" stroke="#37538F" stroke-width="1.02"></line>
            <path d="M436.09,52 L428,52.2 L428.67,49.63 C428.778821,49.2003729 429.085995,48.8483927 429.496944,48.6824327 C429.907893,48.5164727 430.373349,48.5564293 430.75,48.79 L436.09,52 Z" id="Path" fill="#00287A" fill-rule="nonzero"></path>
            <path d="M439,46.31 L429,42.72 C429,42.72 435.55,40.37 439,46.31 Z" id="Path" fill="#00287A" fill-rule="nonzero"></path>
            <path d="M359.19,188.5 L343.77,117.87 L448.2,117.87 C450.511477,117.87 452.5104,119.480969 453,121.74 L467.68,188.940152 L359.75,188.940152 C359.482102,188.946209 359.24735,188.761761 359.19,188.5 Z" id="Path" fill="#9BA9C5" fill-rule="nonzero"></path>
            <path d="M359.46,188.940133 C356.576981,188.958955 354.074365,186.956862 353.46,184.14 L340.3,123.84 C339.971525,122.380126 340.325284,120.850111 341.261246,119.682591 C342.197208,118.515071 343.613632,117.836958 345.11,117.839987 L443.42,117.839987 C445.735225,117.834623 447.739611,119.4473 448.23,121.71 L463,188.940133 L359.46,188.940133 Z" id="Path" fill="#B4BED5" fill-rule="nonzero"></path>
            <ellipse id="Oval" fill="#9BA9C5" fill-rule="nonzero" opacity="0.3" style="mix-blend-mode: multiply;" transform="translate(399.909773, 155.044875) rotate(-58.190000) translate(-399.909773, -155.044875) " cx="399.909773" cy="155.044875" rx="13.75" ry="16"></ellipse>
            <g id="Group" opacity="0.53" transform="translate(124.000000, 32.000000)" fill="url(#linearGradient-1)" fill-rule="nonzero">
                <path d="M42.39,0.649998803 C25.3774086,0.645955161 10.0377375,10.8909803 3.52449772,26.6074045 C-2.98874207,42.3238288 0.607264242,60.4162246 12.635553,72.4473739 C24.6638418,84.4785231 42.7553821,88.0788314 58.4733546,81.5693289 C74.1913272,75.0598264 84.4400012,59.7225919 84.4400012,42.71 C84.4426526,31.5559141 80.0135685,20.8577628 72.1273762,12.9696952 C64.241184,5.08162751 53.5440862,0.649998803 42.39,0.649998803 Z M42.39,72.86 C25.7386148,72.86 12.24,59.3613852 12.24,42.71 C12.24,26.0586148 25.7386148,12.56 42.39,12.56 C59.0413852,12.56 72.54,26.0586148 72.54,42.71 C72.5234629,59.3545305 59.0345305,72.8434629 42.39,72.86 Z" id="Shape"></path>
            </g>
            <path d="M166.379864,110.3 C166.368233,112.041301 167.121136,113.700065 168.439585,114.837588 C169.758034,115.975111 171.509222,116.476811 173.23,116.21 C193.54483,112.861438 208.449415,95.2989575 208.449415,74.71 C208.449415,54.1210425 193.54483,36.5585618 173.23,33.21 C171.51269,32.9437575 169.764919,33.4429105 168.447231,34.5759304 C167.129542,35.7089502 166.374112,37.3621846 166.379864,39.1 L166.379864,39.1 C166.402367,42.0103844 168.510223,44.4850075 171.38,44.97 C185.882729,47.4307729 196.494668,59.9949847 196.494668,74.705 C196.494668,89.4150153 185.882729,101.979227 171.38,104.44 C168.51391,104.924327 166.40719,107.393404 166.379864,110.3 Z" id="Path" fill="url(#linearGradient-2)" fill-rule="nonzero"></path>
            <rect id="Rectangle" fill="#FFA232" fill-rule="nonzero" x="149.6" y="64.95" width="33.57" height="8.41" rx="4.205"></rect>
            <rect id="Rectangle" fill="url(#linearGradient-3)" fill-rule="nonzero" opacity="0.53" x="156.69" y="79.6" width="19.4" height="4.86" rx="2.43"></rect>
            <path d="M272.92,32.6499952 C249.69351,32.6610445 230.87264,51.4968357 230.88,74.723327 C230.887364,97.9498183 249.720171,116.773674 272.946663,116.769995 C296.173156,116.766315 315,97.9364925 315,74.71 C315,63.5515284 310.565947,52.8503707 302.673841,44.9620155 C294.781735,37.0736602 284.07847,32.644694 272.92,32.6499952 Z M272.92,104.86 C256.268615,104.86 242.77,91.3613852 242.77,74.71 C242.77,58.0586148 256.268615,44.56 272.92,44.56 C289.571385,44.56 303.07,58.0586148 303.07,74.71 C303.047965,91.3522493 289.562249,104.837965 272.92,104.86 L272.92,104.86 Z" id="Shape" fill="url(#linearGradient-4)" fill-rule="nonzero" opacity="0.53"></path>
            <path d="M314.42,67.88 C311.549667,50.5243811 298.188592,36.7844093 280.92,33.43 C279.209101,33.0757496 277.429566,33.5088755 276.072837,34.6097639 C274.716108,35.7106523 273.925739,37.3628208 273.92,39.11 L273.92,39.42 C273.927227,42.2044659 275.905709,44.593734 278.64,45.12 C290.967443,47.5219809 300.522943,57.300443 302.64,69.68 C303.126948,72.5608857 305.618261,74.672168 308.54,74.68 L308.54,74.68 C310.25918,74.6609795 311.887602,73.9053726 313.012158,72.604866 C314.136714,71.3043594 314.649343,69.5839204 314.42,67.88 Z" id="Path" fill="url(#linearGradient-5)" fill-rule="nonzero"></path>
            <rect id="Rectangle" fill="#F4674C" fill-rule="nonzero" x="256.13" y="64.95" width="33.57" height="8.41" rx="4.205"></rect>
            <rect id="Rectangle" fill="url(#linearGradient-6)" fill-rule="nonzero" opacity="0.53" x="263.21" y="79.6" width="19.4" height="4.86" rx="2.43"></rect>
            <path d="M59.86,32.6499988 C42.8474086,32.6459552 27.5077375,42.8909803 20.9944977,58.6074045 C14.4812579,74.3238288 18.0772642,92.4162246 30.105553,104.447374 C42.1338418,116.478523 60.2253821,120.078831 75.9433546,113.569329 C91.6613272,107.059826 101.91,91.7225919 101.91,74.71 C101.91,51.4848081 83.0851912,32.6555219 59.86,32.6499988 Z M59.86,104.860002 C47.6645541,104.864045 36.6677014,97.5207984 31.9979032,86.2548363 C27.3281051,74.9888742 29.9051422,62.0191818 38.5271947,53.3942686 C47.1492472,44.7693554 60.118084,42.1880161 71.3855946,46.8540767 C82.6531052,51.5201373 90,62.5145534 90,74.71 C89.9779779,91.3483521 76.4983439,104.832458 59.86,104.860002 Z" id="Shape" fill="url(#linearGradient-7)" fill-rule="nonzero"></path>
            <g id="Group" opacity="0.8" transform="translate(17.000000, 33.000000)" fill="url(#linearGradient-8)" fill-rule="nonzero">
                <path d="M43.9,6.11 L43.9,6.42 C43.9158514,9.22407611 45.9224482,11.6210777 48.68,12.13 C61.0921709,14.582603 70.6513251,24.5261379 72.6129475,37.0253092 C74.57457,49.5244806 68.5210405,61.9182732 57.45692,68.0552501 C46.3927996,74.192227 32.6735876,72.7658544 23.1085694,64.4840869 C13.5435511,56.2023194 10.1690743,42.8283065 14.66,31 C15.1909473,29.5277615 15.1010699,27.9029985 14.4109786,26.4983045 C13.7208873,25.0936105 12.4897885,24.0295012 11,23.55 L10.7,23.46 C7.72787785,22.5079798 4.53385877,24.0696963 3.46,27 C-2.72340129,43.5472824 2.09174908,62.1950064 15.5135235,73.6799086 C28.935298,85.1648108 48.1032367,87.0392192 63.4956595,78.3720209 C78.8880824,69.7048226 87.2245433,52.3431781 84.3639026,34.9114902 C81.5032618,17.4798024 68.0551814,3.69312707 50.7,0.4 C49.0118635,0.097332265 47.2764919,0.559983173 45.963076,1.6628663 C44.64966,2.76574942 43.8938524,4.39495629 43.9,6.11 Z" id="Path"></path>
            </g>
            <rect id="Rectangle" fill="#32CB82" fill-rule="nonzero" x="43.08" y="64.95" width="33.57" height="8.41" rx="4.205"></rect>
            <rect id="Rectangle" fill="url(#linearGradient-9)" fill-rule="nonzero" opacity="0.53" x="50.16" y="79.6" width="19.4" height="4.86" rx="2.43"></rect>
            <g id="Group" opacity="0.4" style="mix-blend-mode: soft-light;" transform="translate(31.000000, 139.000000)" fill="#FFFFFF" fill-rule="nonzero">
                <path d="M6.16,0 L51.57,0 C54.7206905,-0.000119536389 57.282555,2.53942907 57.3104274,5.69 L57.3104274,5.69 C57.328714,7.2244348 56.7322374,8.70247391 55.6537435,9.79412011 C54.5752497,10.8857663 53.1045489,11.5 51.57,11.5 L6.16,11.5 C3.01371641,11.4948411 0.453694212,8.9659844 0.409573315,5.82 L0.409573315,5.82 C0.391286245,4.28291297 0.988816604,2.80233044 2.06918576,1.70880896 C3.14955492,0.615287479 4.62279906,0 6.16,0 Z" id="Path"></path>
            </g>
            <g id="Group" opacity="0.4" style="mix-blend-mode: soft-light;" transform="translate(137.000000, 139.000000)" fill="#FFFFFF" fill-rule="nonzero">
                <path d="M6.68,-2.71161866e-08 L52.09,-2.71161866e-08 C55.2423527,-0.000171626092 57.8071059,2.53781896 57.8404275,5.69 L57.8404275,5.69 C57.8587377,7.22617005 57.2608955,8.70574093 56.1802313,9.79768161 C55.0995671,10.8896223 53.6262818,11.5027907 52.09,11.5 L6.68,11.5 C3.53539585,11.4947641 0.978277832,8.96437553 0.939441727,5.82 L0.939441727,5.82 C0.91858807,4.28384375 1.51387057,2.80321579 2.59265889,1.7093921 C3.6714472,0.615568405 5.14369454,-0.000149219354 6.68,-2.71161866e-08 Z" id="Path"></path>
            </g>
            <g id="Group" opacity="0.4" style="mix-blend-mode: soft-light;" transform="translate(242.000000, 139.000000)" fill="#FFFFFF" fill-rule="nonzero">
                <path d="M6.17,-2.84217094e-14 L51.58,-2.84217094e-14 C54.7301266,0.00523640028 57.2917215,2.54010159 57.3303135,5.69 L57.3303135,5.69 C57.3460221,7.22536404 56.7473007,8.70336043 55.6672251,9.79470642 C54.5871495,10.8860524 53.1154476,11.5 51.58,11.5 L6.17,11.5 C3.02371641,11.4948411 0.463694212,8.9659844 0.419686978,5.82 L0.419686978,5.82 C0.403993997,4.28371569 1.00240202,2.80470139 2.08218555,1.71177267 C3.16196909,0.618843945 4.63363448,0.00258392684 6.17,-2.84217094e-14 L6.17,-2.84217094e-14 Z" id="Path"></path>
            </g>
            <polyline id="Path" stroke="url(#linearGradient-10)" stroke-width="4" opacity="0.6" points="520 309.34 446.53 243.66 371.79 309.34 317.97 267.99 270.88 309.34 241.03 294.23 224.29 294.23"></polyline>
            <path d="M446.6,236.47 C450.276562,236.47 453.591106,238.684707 454.998065,242.081408 C456.405024,245.478108 455.627322,249.387879 453.027601,251.987601 C450.427879,254.587322 446.518108,255.365024 443.121408,253.958065 C439.724707,252.551106 437.51,249.236562 437.51,245.56 C437.515511,240.542016 441.582016,236.475511 446.6,236.47 M446.6,235.56 C441.077153,235.56 436.6,240.037153 436.6,245.56 C436.6,251.082847 441.077153,255.56 446.6,255.56 C452.122847,255.56 456.6,251.082847 456.6,245.56 C456.6,240.037153 452.122847,235.56 446.6,235.56 Z" id="Shape" fill="#FFFFFF" fill-rule="nonzero"></path>
            <circle id="Oval" fill="#FFFFFF" fill-rule="nonzero" cx="446.6" cy="245.56" r="6"></circle>
            <line x1="0" y1="383.73" x2="520" y2="383.73" id="Path" stroke="#FFFFFF" stroke-width="0.5" opacity="0.25"></line>
            <line x1="0" y1="362.74" x2="520" y2="362.74" id="Path" stroke="#FFFFFF" stroke-width="0.5" opacity="0.25"></line>
            <line x1="0" y1="341.75" x2="520" y2="341.75" id="Path" stroke="#FFFFFF" stroke-width="0.5" opacity="0.25"></line>
            <rect id="Rectangle" fill="#66C1FF" fill-rule="nonzero" x="359.86" y="362.74" width="23.38" height="36.83"></rect>
            <rect id="Rectangle" fill="#66C1FF" fill-rule="nonzero" x="468.48" y="341.75" width="23.38" height="57.82"></rect>
            <rect id="Rectangle" fill="#66C1FF" fill-rule="nonzero" x="251.25" y="362.11" width="23.38" height="37.47"></rect>
            <rect id="Rectangle" fill="#66C1FF" fill-rule="nonzero" x="414.17" y="320.76" width="23.38" height="78.81"></rect>
            <rect id="Rectangle" fill="#66C1FF" fill-rule="nonzero" x="305.56" y="376.9" width="23.38" height="22.67"></rect>
            <path d="M174.7,178.48 C173.208472,170.831105 166.619437,165.234369 158.83,165 L24.37,165 C8.52,165 -2.19,177.7 0.45,193.4 L35.05,399.57 L211.8,399.57 L174.7,178.48 Z" id="Path" fill="#9BA9C5" fill-rule="nonzero"></path>
            <path d="M188.74,187.69 C186.63,175.16 174.68,165 162,165 L31,165 C18.42,165 9.88,175.13 12,187.66 L47.54,399.57 L224.29,399.57 L188.74,187.69 Z" id="Path" fill="#CDD4E2" fill-rule="nonzero"></path>
            <path d="M181.09,194.26 C179.16,182.77 168.2,173.46 156.61,173.45 L39.33,173.45 C27.74,173.45 19.9,182.76 21.83,194.25 L56.29,399.57 L215.54,399.57 L181.09,194.26 Z" id="Path" fill="#FFFFFF" fill-rule="nonzero"></path>
            <g id="Group" opacity="0.5" style="mix-blend-mode: multiply;" transform="translate(134.000000, 184.000000)" fill="#B4BED5" fill-rule="nonzero">
                <path d="M4.7,7.79 L30.83,7.79 C31.7161686,7.82519745 32.5688322,7.44872867 33.1398542,6.77015111 C33.7108763,6.09157355 33.9361065,5.18712054 33.75,4.32 L33.75,4.32 C33.3602804,2.35809654 31.6692123,0.924004521 29.67,0.86 L3.54,0.86 C2.65426695,0.823943953 1.80188181,1.20064749 1.23226456,1.8798818 C0.662647306,2.55911612 0.440194875,3.46409176 0.63,4.33 L0.63,4.33 C1.01208368,6.29233573 2.70175098,7.72876051 4.7,7.79 Z" id="Path"></path>
            </g>
            <g id="Group" opacity="0.5" style="mix-blend-mode: multiply;" transform="translate(33.000000, 184.000000)" fill="#B4BED5" fill-rule="nonzero">
                <path d="M4.5,7.77 L17.7,7.77 C18.5835634,7.80528879 19.4337622,7.42988385 20.002929,6.75314257 C20.5720958,6.07640129 20.7962152,5.17443827 20.61,4.31 L20.61,4.31 C20.2279163,2.34766427 18.538249,0.911239492 16.54,0.85 L3.34,0.85 C2.45471889,0.811510982 1.60159803,1.18554763 1.03009522,1.86273932 C0.458592403,2.53993101 0.233264953,3.44378174 0.42,4.31 L0.42,4.31 C0.809719613,6.27190346 2.50078766,7.70599548 4.5,7.77 L4.5,7.77 Z" id="Path"></path>
            </g>
            <path d="M50.68,262.62 L174.91,262.62 C176.441982,262.69082 177.918759,262.040289 178.900557,260.862131 C179.882355,259.683973 180.255918,258.114097 179.91,256.62 L172.27,213.68 C171.566674,210.280019 168.629832,207.801672 165.16,207.68 L40.89,207.68 C39.3606446,207.617491 37.8893129,208.270324 36.909426,209.446188 C35.929539,210.622053 35.5527306,212.186988 35.89,213.68 L43.53,256.62 C44.240193,260.032119 47.196403,262.512854 50.68,262.62 Z" id="Path" fill="#E5E9F0" fill-rule="nonzero"></path>
            <path d="M105.48,220.55 C113.96,220.55 122.21,227.42 123.91,235.9 C125.61,244.38 120.11,251.26 111.63,251.26 C103.15,251.26 94.89,244.38 93.2,235.9" id="Path" stroke="url(#linearGradient-11)" stroke-width="7.1" opacity="0.7" style="mix-blend-mode: multiply;"></path>
            <path d="M72.84,389.76 L197.07,389.76 C198.601982,389.83082 200.078759,389.180289 201.060557,388.002131 C202.042355,386.823973 202.415918,385.254097 202.07,383.76 L194.43,340.82 C193.730867,337.421577 190.797425,334.942612 187.33,334.82 L63.05,334.82 C61.5206446,334.757491 60.0493129,335.410324 59.069426,336.586188 C58.089539,337.762053 57.7127306,339.326988 58.05,340.82 L65.69,383.76 C66.400193,387.172119 69.356403,389.652854 72.84,389.76 Z" id="Path" fill="#E5E9F0" fill-rule="nonzero"></path>
            <g id="Group" opacity="0.5" style="mix-blend-mode: multiply;" transform="translate(69.000000, 341.000000)" fill="#B4BED5" fill-rule="nonzero">
                <ellipse id="Oval" transform="translate(21.426366, 21.285240) rotate(-47.410000) translate(-21.426366, -21.285240) " cx="21.4263657" cy="21.2852405" rx="13.43" ry="15.9"></ellipse>
            </g>
            <g id="Group" opacity="0.5" style="mix-blend-mode: multiply;" transform="translate(114.000000, 347.000000)" fill="#B4BED5" fill-rule="nonzero">
                <polygon id="Path" points="65.81 0.67 0.33 0.67 1.14 5.01 66.62 5.01"></polygon>
                <polygon id="Path" points="34.88 12.94 2.66 12.94 3.44 17.28 35.67 17.28"></polygon>
                <polygon id="Path" points="72.23 25.2 5.22 25.2 6.06 29.9 73.07 29.9"></polygon>
            </g>
            <path d="M43.1,320.76 L155.49,320.76 C157.019355,320.822509 158.490687,320.169676 159.470574,318.993812 C160.450461,317.817947 160.827269,316.253012 160.49,314.76 L154.73,281.69 C154.030867,278.291577 151.097425,275.812612 147.63,275.69 L35.49,275.69 L43.1,320.76 Z" id="Path" fill="url(#linearGradient-12)" fill-rule="nonzero"></path>
            <path d="M157.52,297.92 L160.45,314.73 C160.787269,316.223012 160.410461,317.787947 159.430574,318.963812 C158.450687,320.139676 156.979355,320.792509 155.45,320.73 L43.1,320.73 L39.25,297.89 L157.52,297.92 Z" id="Path" fill="url(#linearGradient-13)" fill-rule="nonzero"></path>
            <path d="M116.21,320.76 L240.63,320.76 C242.160666,320.826644 243.634706,320.174957 244.615543,318.997953 C245.59638,317.820948 245.971574,316.253555 245.63,314.76 L239.88,281.69 C239.179974,278.288055 236.241213,275.808088 232.77,275.69 L108.31,275.69 C106.780645,275.627491 105.309313,276.280324 104.329426,277.456188 C103.349539,278.632053 102.972731,280.196988 103.31,281.69 L109.06,314.76 C109.766877,318.1741 112.725027,320.656464 116.21,320.76 L116.21,320.76 Z" id="Path" fill="#E5E9F0" fill-rule="nonzero"></path>
            <g id="Group" opacity="0.5" style="mix-blend-mode: multiply;" transform="translate(155.000000, 289.000000)" fill="#B4BED5" fill-rule="nonzero">
                <polygon id="Path" points="72.87 0.89 0.02 0.89 1.5 5.23 74.35 5.23"></polygon>
                <polygon id="Path" points="41.48 13.16 4.25 13.16 5.7 17.5 42.94 17.5"></polygon>
            </g>
            <ellipse id="Oval" fill="#F4674C" fill-rule="nonzero" transform="translate(130.055625, 298.325263) rotate(-47.070000) translate(-130.055625, -298.325263) " cx="130.055625" cy="298.325263" rx="13.59" ry="15.71"></ellipse>
            <path d="M133.8,305.66 L129.33,305.66 C128.757951,305.646897 128.207548,305.438733 127.77,305.07 L124,301.9 C123.552434,301.537407 123.241995,301.032944 123.12,300.47 L122.2,295.99 C122.082506,295.492437 122.192445,294.968392 122.5,294.56 L125.02,291.39 C125.341765,291.001115 125.825537,290.783233 126.33,290.8 L130.81,290.8 C131.379384,290.811323 131.927202,291.019847 132.36,291.39 L136.17,294.56 C136.599723,294.933834 136.891918,295.440775 137,296 L137.91,300.48 C138.038004,300.977379 137.927104,301.506 137.61,301.91 L135.1,305.08 C134.776639,305.45993 134.298735,305.673149 133.8,305.66 L133.8,305.66 Z M126.57,292.149964 C126.400929,292.148108 126.239744,292.221374 126.13,292.35 L123.61,295.52 C123.510284,295.654841 123.473816,295.826244 123.51,295.99 L124.43,300.47 C124.47093,300.654874 124.573123,300.820497 124.72,300.94 L128.54,304.11 C128.683654,304.230476 128.862744,304.300707 129.05,304.31003 L133.53,304.31003 C133.696189,304.311726 133.854247,304.238211 133.96,304.11 L136.48,300.94 C136.585042,300.807613 136.622049,300.633683 136.58,300.47 L135.67,295.99 C135.625692,295.804058 135.520002,295.638478 135.37,295.52 L131.56,292.35 C131.413276,292.228135 131.23057,292.157864 131.04,292.149964 L126.57,292.149964 Z" id="Shape" fill="#FFFFFF" fill-rule="nonzero"></path>
            <path d="M130.84,302.08 C130.254451,302.059675 129.754855,301.65017 129.62,301.08 C129.552284,300.835611 129.606008,300.57357 129.764429,300.375543 C129.92285,300.177517 130.166707,300.067582 130.42,300.08 C131.005549,300.100325 131.505145,300.50983 131.64,301.08 C131.703125,301.323954 131.64762,301.583392 131.490204,301.780163 C131.332787,301.976933 131.091861,302.088035 130.84,302.08 Z" id="Path" fill="#FFFFFF"></path>
            <path d="M129.81,298.71 L129.13,298.71 L128.25,294.38 L130.25,294.38 L130.86,297.38 C130.940625,297.701767 130.867456,298.042731 130.661911,298.303088 C130.456366,298.563444 130.141693,298.713747 129.81,298.71 Z" id="Path" fill="#FFFFFF"></path>
        </g>
    </g>
</svg>